PathFileType	4	(X/Y/Z)	C:/Users/empri/Downloads/Take 2024-05-09 02.19.22 PM.trc
DataRate	CameraRate	NumFrames	NumMarkers	Units	OrigDataRate	OrigDataStartFrame	OrigNumFrames
240	240	43	9	mm	240	415	830
Frame#	Time	C7	CLAV	RELB	RFIN	RFRM	RSHO	RUPA	RWRA	RWRB
X1	Y1	Z1	X2	Y2	Z2	X3	Y3	Z3	X4	Y4	Z4	X5	Y5	Z5	X6	Y6	Z6	X7	Y7	Z7	X8	Y8	Z8	X9	Y9	Z9
415	1.729	-119.689	1540.54	-33.8389	36.9779	1366.09	-135.394	181.519	1209.12	43.5522	240.309	1434.22	-109.578	219.755	1224.85	-54.2501	33.8451	1481.37	72.1049	103.784	1331.91	97.1205	194.068	1362.29	-71.3155	174.949	1325.25	-158.111
416	1.733	-119.729	1540.53	-33.8102	36.9419	1366.1	-135.38	182.224	1209.93	43.4188	238.403	1436.58	-108.55	219.756	1226.58	-54.9491	33.8517	1481.46	72.0024	104.192	1332.27	96.6637	192.907	1364.01	-70.7473	173.764	1327.5	-157.824
417	1.738	-119.773	1540.52	-33.7749	36.8894	1366.09	-135.381	183.907	1211.11	42.4713	235.927	1439.43	-107.207	219.757	1228.76	-55.7259	33.8619	1481.57	71.8726	104.694	1332.74	96.0663	191.251	1366.07	-69.9326	172.327	1330.19	-157.426
418	1.742	-119.798	1540.5	-33.7522	36.8522	1366.07	-135.368	184.534	1212	41.7223	233.948	1441.74	-106.122	219.722	1230.49	-56.3085	33.8833	1481.68	71.7309	105.119	1333.14	95.5996	189.958	1367.66	-69.3051	171.309	1332.29	-157.286
419	1.746	-119.821	1540.49	-33.7314	36.8161	1366.06	-135.362	185.074	1212.78	41.1293	231.967	1443.92	-105.029	219.727	1232.16	-56.8475	33.9081	1481.76	71.6229	105.585	1333.49	95.1676	188.637	1369.27	-68.5872	170.174	1334.37	-157.048
420	1.75	-119.857	1540.47	-33.7145	36.7798	1366.06	-135.354	185.565	1213.67	40.3839	229.87	1446.08	-103.825	219.637	1233.83	-57.3668	33.9359	1481.84	71.516	106.004	1333.85	94.7314	187.375	1370.63	-68.06	168.661	1336.39	-156.107
421	1.754	-119.884	1540.46	-33.6914	36.7467	1366.06	-135.357	185.883	1214.44	39.7031	227.752	1448.27	-102.53	219.607	1235.51	-57.8883	33.9727	1481.91	71.3947	106.385	1334.23	94.2262	185.949	1372.01	-67.3721	167.445	1338.37	-155.588
422	1.758	-119.909	1540.46	-33.6693	36.704	1366.07	-135.367	186.319	1215.22	39.1074	225.66	1450.3	-101.286	219.481	1237.1	-58.3677	34.0178	1482	71.281	106.649	1334.51	93.5826	184.584	1373.42	-66.6646	166.265	1340.3	-155.155
423	1.763	-119.93	1540.46	-33.632	36.6486	1366.08	-135.385	186.873	1216.18	38.286	222.993	1452.69	-99.7319	219.276	1239.01	-58.8834	34.0834	1482.12	71.1307	106.968	1334.87	92.9319	182.781	1375.19	-65.7506	164.772	1342.52	-154.503
424	1.767	-119.948	1540.47	-33.6038	36.6037	1366.09	-135.392	186.92	1217.14	37.1201	220.797	1454.57	-98.4254	219.106	1240.5	-59.3168	34.1394	1482.2	71.0082	107.2	1335.15	92.4675	181.405	1376.42	-65.0658	163.622	1344.29	-153.937
425	1.771	-119.96	1540.47	-33.5742	36.5612	1366.09	-135.406	187.445	1217.63	36.9608	218.638	1456.33	-97.1033	218.918	1241.94	-59.8133	34.1885	1482.27	70.8879	107.494	1335.41	91.9912	179.953	1377.63	-64.3316	162.285	1345.97	-153.316
426	1.775	-119.972	1540.47	-33.5502	36.5193	1366.1	-135.437	187.735	1218.54	35.9607	216.427	1458.12	-95.6946	218.715	1243.35	-60.3095	34.2558	1482.34	70.7659	107.836	1335.68	91.4477	178.565	1378.72	-63.7527	161.021	1347.66	-152.775
427	1.779	-119.981	1540.46	-33.5319	36.4903	1366.11	-135.461	188.092	1219.21	35.3834	214.252	1459.82	-94.3078	218.405	1244.76	-60.7072	34.319	1482.4	70.6467	108.221	1335.75	90.7885	177.17	1379.86	-63.1495	159.795	1349.34	-152.214
428	1.783	-119.986	1540.45	-33.5208	36.4539	1366.13	-135.504	188.505	1219.89	34.893	212.007	1461.44	-92.8878	218.174	1246.14	-61.0362	34.3813	1482.45	70.5352	108.773	1335.99	89.7711	175.462	1380.9	-61.8356	158.486	1350.92	-151.59
429	1.787	-119.994	1540.46	-33.5044	36.4213	1366.15	-135.542	188.871	1220.52	34.3843	209.775	1463.01	-91.4515	217.876	1247.49	-61.3821	34.4531	1482.5	70.3763	109.115	1336.72	90.3911	173.991	1381.97	-60.8589	157.227	1352.45	-150.949
430	1.792	-119.99	1540.47	-33.4873	36.3724	1366.16	-135.596	189.319	1221.29	33.7641	206.998	1464.85	-89.6367	217.343	1249.14	-61.8467	34.5478	1482.57	70.215	109.412	1337.1	90.0409	172.114	1383.19	-59.8623	155.599	1354.37	-150.135
431	1.796	-119.977	1540.45	-33.479	36.336	1366.15	-135.623	189.591	1221.82	33.2918	204.745	1466.29	-88.1746	216.912	1250.37	-62.141	34.6347	1482.64	70.0747	109.651	1337.33	89.6296	170.609	1384.11	-58.9216	154.245	1355.81	-149.465
432	1.8	-119.969	1540.45	-33.4631	36.2994	1366.15	-135.654	189.884	1222.42	32.8027	202.521	1467.67	-86.7038	216.511	1251.62	-62.441	34.7243	1482.68	69.9341	109.892	1337.46	89.1704	169.064	1384.93	-58.0859	152.897	1357.18	-148.77
433	1.804	-119.965	1540.45	-33.4607	36.2721	1366.16	-135.696	190.142	1222.94	32.3299	200.436	1468.99	-85.1652	216.1	1252.86	-62.7707	34.8128	1482.73	69.8196	110.113	1337.62	88.5595	167.57	1385.75	-57.146	151.53	1358.6	-148.095
434	1.808	-119.949	1540.45	-33.4587	36.2429	1366.17	-135.741	190.38	1223.45	31.8476	198.293	1470.21	-83.6475	215.656	1254.08	-63.0817	34.9268	1482.8	69.703	110.332	1337.79	88.1739	166.048	1386.52	-56.2236	150.111	1359.93	-147.356
435	1.813	-119.919	1540.45	-33.4506	36.2038	1366.18	-135.789	190.639	1224.08	31.266	195.618	1471.67	-81.7606	214.988	1255.42	-63.4788	35.0492	1482.85	69.5394	110.601	1338.09	87.7676	164.17	1387.45	-55.0601	148.3	1361.57	-146.463
436	1.817	-119.893	1540.45	-33.4442	36.1775	1366.17	-135.831	190.838	1224.54	30.8465	193.49	1472.74	-80.2549	214.474	1256.58	-63.7709	35.1352	1482.9	69.4242	110.829	1338.3	87.4023	162.673	1388.11	-54.1571	146.802	1362.79	-145.694
437	1.821	-119.873	1540.44	-33.439	36.1464	1366.16	-135.863	191.04	1225.02	30.4172	191.377	1473.84	-78.7263	213.974	1257.63	-64.033	35.2121	1482.95	69.3096	111.02	1338.47	87.0357	161.207	1388.75	-53.2161	145.268	1363.99	-144.925
438	1.825	-119.848	1540.44	-33.4325	36.1244	1366.16	-135.905	191.227	1225.49	29.938	189.309	1474.76	-77.2634	213.337	1258.65	-64.2942	35.2871	1482.98	69.2037	111.21	1338.63	86.6228	159.713	1389.57	-52.119	143.777	1365.15	-144.105
439	1.829	-119.826	1540.43	-33.434	36.0951	1366.17	-135.946	191.344	1225.88	29.5338	187.268	1475.67	-75.7697	212.782	1259.72	-64.5799	35.3582	1483.01	69.0929	111.38	1338.72	86.1753	158.224	1390.11	-51.2441	142.247	1366.3	-143.257
440	1.833	-119.794	1540.44	-33.4329	36.0745	1366.17	-135.993	193.185	1226.92	29.0089	185.25	1476.57	-74.2476	212.13	1260.7	-64.8467	35.431	1483.06	68.9878	111.596	1338.9	85.8552	156.83	1390.69	-50.1829	140.723	1367.37	-142.428
441	1.837	-119.777	1540.45	-33.4293	36.0477	1366.16	-136.042	193.091	1227.34	28.6755	183.256	1477.39	-72.7411	211.475	1261.65	-65.0965	35.5008	1483.09	68.8863	111.782	1339.09	85.5005	155.374	1391.14	-49.2673	139.219	1368.44	-141.64
442	1.842	-119.741	1540.44	-33.4249	36.0186	1366.13	-136.105	194.131	1228.29	28.25	180.738	1478.35	-70.8457	210.594	1262.76	-65.4443	35.6109	1483.13	68.7628	112.01	1339.23	85.0719	153.614	1391.64	-48.0228	137.322	1369.73	-140.644
443	1.846	-119.716	1540.43	-33.4273	35.9933	1366.11	-136.153	192.513	1227.84	27.8042	178.752	1479.06	-69.3291	209.943	1263.68	-65.6712	35.6804	1483.16	68.6545	112.122	1339.37	84.7189	152.19	1392.04	-47.0847	135.807	1370.67	-139.834
444	1.85	-119.691	1540.43	-33.4276	35.9789	1366.08	-136.204	193.612	1228.83	27.5515	176.842	1479.71	-67.8238	209.253	1264.47	-65.8849	35.7638	1483.18	68.5099	112.253	1339.47	84.3769	150.87	1392.42	-46.1329	134.302	1371.63	-139.009
445	1.854	-119.678	1540.44	-33.4359	35.9536	1366.11	-136.391	192.553	1228.46	27.0494	174.916	1480.28	-66.3345	208.573	1265.27	-66.1414	35.8371	1483.2	68.4053	112.384	1339.54	83.9965	149.449	1392.75	-45.1558	132.805	1372.44	-138.099
446	1.858	-119.656	1540.43	-33.4515	35.939	1366.09	-136.498	193.279	1229.24	26.8684	173.003	1480.81	-64.8275	207.86	1266.08	-66.3776	35.9083	1483.21	68.3094	112.603	1339.67	83.7266	148.136	1392.86	-44.3139	131.307	1373.28	-137.215
447	1.863	-119.63	1540.41	-33.4585	35.9284	1366.09	-136.617	192.033	1228.58	26.1936	170.647	1481.42	-63.0019	206.924	1266.98	-66.6125	36.0078	1483.23	68.1536	112.816	1339.8	83.3514	146.46	1393.21	-43.0547	129.552	1374.19	-136.269
448	1.867	-119.604	1540.4	-33.4696	35.9108	1366.06	-136.673	192.06	1229.19	26.3423	168.813	1481.85	-61.5256	206.241	1267.65	-66.8001	36.0767	1483.22	68.0634	112.941	1339.86	83.0525	145.087	1393.32	-42.2915	128.197	1374.95	-135.531
449	1.871	-119.587	1540.41	-33.4804	35.8703	1366.02	-136.617	192.059	1228.86	25.4451	167.038	1482.28	-60.094	205.574	1268.32	-66.9651	36.1471	1483.21	67.9714	113.041	1339.91	82.7533	143.795	1393.53	-41.3501	126.782	1375.62	-134.622
450	1.875	-119.562	1540.4	-33.484	35.8356	1365.98	-136.55	192.093	1229.02	25.1251	165.252	1482.63	-58.646	204.903	1268.93	-67.1225	36.2217	1483.18	67.8589	113.082	1339.91	82.443	142.531	1393.6	-40.5357	125.452	1376.28	-133.877
451	1.879	-119.54	1540.38	-33.4807	35.8194	1365.97	-136.566	192.108	1229.16	24.7904	163.512	1482.93	-57.2336	204.266	1269.5	-67.2687	36.2931	1483.17	67.7729	113.1	1339.91	82.1179	141.377	1393.72	-39.6782	124.233	1376.8	-133.083
452	1.883	-119.527	1540.38	-33.4803	35.806	1365.98	-136.612	192.117	1229.29	24.5186	161.82	1483.17	-55.959	203.604	1270.03	-67.444	36.3597	1483.17	67.6948	113.1	1339.91	81.8696	140.203	1393.76	-38.8802	123.051	1377.43	-132.424
453	1.888	-119.514	1540.39	-33.471	35.7844	1365.99	-136.667	192.091	1229.41	24.2026	159.774	1483.44	-54.34	202.822	1270.62	-67.6198	36.4293	1483.15	67.6232	113.118	1339.91	81.5927	138.774	1393.78	-37.9324	121.645	1378.06	-131.596
454	1.892	-119.5	1540.4	-33.4579	35.7686	1365.99	-136.709	192.054	1229.49	23.9762	158.204	1483.62	-53.0929	202.2	1271.07	-67.7431	36.4709	1483.13	67.5726	113.126	1339.91	81.3895	137.716	1393.82	-37.2424	120.599	1378.56	-130.979
455	1.896	-119.491	1540.4	-33.443	35.7481	1365.99	-136.749	192.014	1229.56	23.7484	156.74	1483.76	-51.9726	201.627	1271.49	-67.874	36.5005	1483.11	67.516	113.141	1339.87	81.1951	136.66	1393.81	-36.5964	119.579	1378.96	-130.375
456	1.9	-119.484	1540.4	-33.4251	35.7316	1365.98	-136.784	191.95	1229.6	23.4887	155.3	1483.83	-50.9684	201.082	1271.82	-68.0035	36.5249	1483.08	67.4773	113.142	1339.84	81.0101	135.708	1393.76	-35.9825	118.64	1379.35	-129.873
457	1.904	-119.503	1540.39	-33.4128	35.7223	1365.99	-136.819	191.883	1229.64	23.2661	153.936	1483.92	-49.9882	200.587	1272.16	-68.143	36.5366	1483.05	67.445	113.127	1339.8	80.8478	134.794	1393.7	-35.4674	117.801	1379.63	-129.415
